# xmcd CD database file
#
# Track frame offsets:
#	150
#	17806
#	41786
#	66664
#	97638
#	106763
#	139571
#	169577
#	197944
#
# Disc length: 2962 seconds
#
# Revision: 0
# Processed by: cddbd v1.5.2PL0 Copyright (c) Steve Scherf et al.
# Submitted via: CDex 1.50
#
DISCID=740b9009
DTITLE=Rainer Böhm, Norbert Scholly - Juvenile
DYEAR=2015
DGENRE=Jazz
TTITLE0=Waltz for K.
TTITLE1=Origin
TTITLE2=El Cielo
TTITLE3=Juvenile
TTITLE4=Late
TTITLE5=Warp Dream
TTITLE6=Walls
TTITLE7=Dance in Seven
TTITLE8=Georgia on my Mind
EXTD=YEAR: 2015
EXTT0=
EXTT1=
EXTT2=
EXTT3=
EXTT4=
EXTT5=
EXTT6=
EXTT7=
EXTT8=
PLAYORDER=
